<?xml version="1.0" standalone="no"?>
<!DOCTYPE svg PUBLIC "-//W3C//DTD SVG 20010904//EN"
 "http://www.w3.org/TR/2001/REC-SVG-20010904/DTD/svg10.dtd">
<svg version="1.0" xmlns="http://www.w3.org/2000/svg"
 width="300.000000pt" height="105.000000pt" viewBox="0 0 300.000000 105.000000"
 preserveAspectRatio="xMidYMid meet">

<g transform="translate(0.000000,105.000000) scale(0.100000,-0.100000)"
fill="#000000" stroke="none">
<path d="M242 1036 c-110 -36 -177 -110 -202 -222 -13 -57 -4 -124 16 -124 10
0 14 14 14 53 0 156 110 267 265 267 69 0 131 -23 180 -66 37 -32 39 -35 21
-47 -10 -7 -34 -24 -54 -40 l-35 -28 -26 25 c-36 33 -64 46 -99 46 l-30 0 5
-59 c6 -68 2 -73 -89 -92 -53 -11 -98 -41 -98 -66 0 -7 -25 -29 -55 -48 -48
-31 -55 -40 -55 -68 0 -40 30 -105 61 -134 13 -12 51 -31 84 -44 76 -27 75
-27 139 -118 74 -106 159 -182 261 -232 l84 -42 58 22 c72 27 157 85 197 135
34 41 38 78 21 183 -7 48 -5 57 18 93 15 21 51 57 81 80 69 50 77 80 47 178
-11 38 -28 75 -36 82 -22 18 -81 4 -138 -32 -49 -32 -43 -31 -170 -12 -40 6
-48 10 -53 33 -3 14 -14 51 -24 81 -11 30 -18 56 -16 57 2 2 30 13 62 25 89
32 202 30 274 -3 70 -33 126 -89 159 -159 22 -46 26 -69 26 -140 0 -117 -36
-192 -137 -284 -57 -52 -68 -67 -55 -72 36 -13 142 86 187 176 98 194 28 422
-159 512 -34 16 -70 23 -136 26 -77 4 -101 0 -169 -22 l-78 -27 -40 37 c-22
20 -61 45 -87 57 -58 25 -162 32 -219 13z m351 -203 c8 -21 18 -52 21 -70 7
-31 6 -33 -44 -54 -115 -49 -188 -194 -146 -292 45 -106 150 -96 203 20 21 45
27 77 31 156 l5 99 41 -6 c133 -19 139 -19 185 12 42 29 43 30 62 11 10 -10
30 -19 43 -19 22 0 26 -6 31 -44 4 -24 4 -52 1 -63 -9 -30 -61 -55 -106 -52
-55 4 -74 -16 -31 -34 26 -11 30 -16 18 -25 -8 -7 -22 -30 -32 -52 -16 -36
-17 -47 -5 -109 7 -38 10 -80 7 -93 -16 -63 -200 -187 -257 -173 -57 14 -230
129 -230 153 0 4 20 15 44 25 23 10 56 31 71 47 24 25 26 30 12 36 -10 4 -28
-4 -47 -20 -26 -21 -85 -46 -112 -46 -4 0 -30 33 -57 74 -48 71 -53 75 -123
102 -86 32 -124 66 -134 119 -6 34 -4 41 16 54 31 22 83 73 95 94 6 11 35 24
77 33 80 18 108 46 108 105 0 44 2 45 35 23 37 -24 38 -42 4 -85 -55 -70 -59
-132 -9 -159 55 -29 123 69 103 149 -10 36 -8 42 16 64 30 28 72 57 82 57 4 0
14 -17 22 -37z m-153 -118 c0 -38 -39 -93 -58 -81 -19 12 -14 39 15 83 30 48
43 47 43 -2z m186 -104 c-8 -102 -30 -172 -62 -205 -33 -32 -58 -33 -89 -1
-57 56 -12 195 82 256 73 45 77 42 69 -50z"/>
<path d="M184 645 c-8 -19 3 -35 26 -35 19 0 30 17 23 38 -6 17 -42 15 -49 -3z"/>
<path d="M697 608 c-20 -15 -27 -59 -10 -65 6 -2 13 6 15 19 3 24 25 28 61 13
24 -10 23 21 -2 35 -26 13 -44 13 -64 -2z"/>
<path d="M1286 872 c-10 -9 -7 -175 4 -213 21 -75 107 -110 182 -75 53 26 63
53 63 179 0 97 -2 110 -17 113 -16 2 -18 -8 -18 -90 0 -141 -18 -176 -93 -176
-59 0 -71 25 -77 153 -4 93 -8 111 -22 113 -9 1 -19 -1 -22 -4z"/>
<path d="M1630 728 c0 -140 1 -148 20 -148 18 0 20 8 22 105 l3 105 84 -105
c117 -146 121 -144 121 44 0 136 -2 149 -17 147 -16 -2 -19 -18 -23 -111 l-5
-107 -87 109 c-48 60 -94 110 -102 110 -14 0 -16 -21 -16 -149z"/>
<path d="M1980 729 c0 -143 1 -149 20 -149 20 0 20 5 18 147 -3 130 -5 146
-20 149 -16 2 -18 -11 -18 -147z"/>
<path d="M2070 858 c0 -15 9 -18 50 -18 l50 0 0 -130 c0 -123 1 -130 20 -130
19 0 20 7 20 130 l0 130 50 0 c41 0 50 3 50 18 0 15 -12 17 -120 17 -108 0
-120 -2 -120 -17z"/>
<path d="M2364 871 c-2 -2 -4 -69 -4 -148 l0 -143 110 0 c91 0 110 3 110 15 0
12 -17 15 -90 15 l-90 0 0 50 0 50 75 0 c59 0 75 3 75 15 0 11 -17 15 -72 17
l-73 3 -3 48 -3 47 85 0 c75 0 86 2 86 18 0 15 -11 17 -101 17 -55 0 -103 -2
-105 -4z"/>
<path d="M2654 871 c-2 -2 -4 -69 -4 -148 l0 -143 93 0 c101 0 140 15 174 66
25 39 23 125 -3 161 -37 49 -74 63 -169 66 -48 1 -89 0 -91 -2z m183 -51 c39
-23 55 -52 55 -96 0 -71 -57 -114 -152 -114 l-50 0 0 115 0 115 58 0 c39 0 67
-6 89 -20z"/>
<path d="M2694 466 c-43 -19 -74 -62 -74 -103 0 -49 41 -86 110 -103 30 -7 65
-19 78 -27 58 -36 -49 -60 -125 -28 -19 8 -37 15 -38 15 -2 0 -9 -16 -15 -36
-14 -41 -9 -47 50 -64 84 -24 204 1 229 48 6 12 11 39 11 60 0 52 -38 86 -114
102 -29 6 -62 17 -72 24 -16 12 -16 16 -4 31 14 16 48 17 134 3 13 -2 23 6 32
29 13 30 12 33 -9 44 -34 19 -157 22 -193 5z"/>
<path d="M1295 295 l0 -175 53 0 54 0 -4 42 -3 43 65 6 c77 6 124 31 145 75
19 40 19 65 1 109 -26 60 -64 75 -196 75 l-115 0 0 -175z m211 70 c15 -23 15
-27 0 -51 -15 -22 -23 -25 -63 -22 l-46 3 -1 48 -1 47 47 0 c40 0 50 -4 64
-25z"/>
<path d="M1770 295 l0 -175 145 0 145 0 0 35 0 35 -95 0 -95 0 0 35 0 35 81 0
80 0 -3 38 -3 37 -77 3 -78 3 0 29 0 30 90 0 90 0 0 35 0 35 -140 0 -140 0 0
-175z"/>
<path d="M2182 433 l3 -38 53 -3 52 -3 0 -135 0 -134 50 0 50 0 0 135 0 135
55 0 55 0 0 40 0 40 -161 0 -160 0 3 -37z"/>
</g>
</svg>
